<svg xmlns="http://www.w3.org/2000/svg" width="3116" height="972" viewBox="0 0 3116 972" fill="none">
<rect width="3116" height="972" fill="white"/>
<mask id="mask0_3610_13605" style="mask-type:alpha" maskUnits="userSpaceOnUse" x="0" y="144" width="3116" height="828">
<rect y="144" width="3116" height="828" fill="url(#paint0_linear_3610_13605)"/>
</mask>
<g mask="url(#mask0_3610_13605)">
<path opacity="0.5" d="M3107.3 1169.08C3107.3 1169.08 3169.95 211.812 2799.19 189.578C2428.43 167.344 2200.92 616.287 1860.66 595.771C1520.46 575.528 1759.05 170.432 1551.74 158.215C1344.07 145.797 1300.03 1077.37 984.67 1058.61C669.589 1039.79 698.212 156.333 51.9068 117.768" stroke="#1A1D25" stroke-opacity="0.3" stroke-width="1.1998" stroke-miterlimit="10"/>
<path opacity="0.5" d="M3106.76 1178.95C3106.76 1178.95 3161.91 244.948 2795.81 218.204C2432.75 191.811 2207.55 623.325 1873.86 601.018C1541.22 579.31 1769.17 185.95 1565.72 173.86C1454.09 167.123 1407.15 405.083 1328.97 625.615C1250.26 847.468 1156.48 1063.7 995.177 1047.5C842.367 1032.23 766.532 826.525 659.955 617.107C542.085 385.712 398.486 165.745 50.4966 144.974" stroke="#1A1D25" stroke-opacity="0.3" stroke-width="1.1708" stroke-miterlimit="10"/>
<path opacity="0.5" d="M3106.21 1188.83C3106.21 1188.83 3153.68 278.432 2792.24 247.178C2437.14 216.551 2214.25 630.636 1887.06 606.264C1561.97 583.09 1778.94 201.269 1579.7 189.506C1460 182.313 1428.86 430.708 1348.18 644.256C1267.3 858.153 1169.91 1060.04 1005.49 1036.74C850.132 1015.38 770.286 808.997 661.669 607.209C540.214 382.095 406.742 193.854 48.6134 172.602" stroke="#1A1D25" stroke-opacity="0.3" stroke-width="1.1418" stroke-miterlimit="10"/>
<path opacity="0.5" d="M3105.67 1198.7C3105.67 1198.7 3145.65 311.567 2788.59 275.877C2441.12 240.818 2221.01 637.05 1900.2 611.236C1582.7 585.699 1788.71 216.587 1593.61 204.877C1465.56 197.305 1450.22 456.134 1367.25 662.349C1284.4 867.941 1183.11 1055.56 1015.72 1025.7C857.75 997.979 774.042 791.47 663.386 597.31C538.545 378.13 414.726 222.039 47.0066 200.156" stroke="#1A1D25" stroke-opacity="0.3" stroke-width="1.1127" stroke-miterlimit="10"/>
<path opacity="0.5" d="M3105.12 1208.58C3105.12 1208.58 3137.42 345.05 2785.21 304.501C2445.78 265.482 2227.84 643.737 1913.67 616.406C1603.99 589.328 1799.11 232.029 1607.86 220.446C1471.39 212.22 1472.12 481.409 1386.66 680.64C1301.91 878.201 1196.86 1050.94 1026.5 1014.51C866.186 980.353 778.269 773.518 665.573 586.987C537.148 374.088 423.455 249.723 45.5964 227.36" stroke="#1A1D25" stroke-opacity="0.3" stroke-width="1.0837" stroke-miterlimit="10"/>
<path opacity="0.5" d="M3104.58 1218.45C3104.58 1218.45 3129.53 378.734 2781.63 333.475C2449.9 290.297 2234.54 651.048 1926.88 621.653C1624.67 592.835 1808.88 247.348 1621.91 236.367C1477.1 227.76 1494.1 506.96 1405.87 699.282C1319.15 888.537 1210.21 1047.01 1036.88 1004.02C873.951 963.502 782.172 756.539 667.635 577.289C535.276 370.471 432.059 278.033 44.0615 255.188" stroke="#1A1D25" stroke-opacity="0.3" stroke-width="1.0547" stroke-miterlimit="10"/>
<path opacity="0.5" d="M3103.76 1228.4C3103.76 1228.4 3121.3 412.218 2777.98 362.174C2454.3 315.038 2241.09 657.811 1940.01 626.625C1645.55 595.992 1818.65 262.666 1635.82 251.738C1482.94 242.676 1515.66 532.037 1424.93 717.375C1336.25 898.325 1223.68 1042.45 1047.04 992.702C881.492 945.828 785.503 738.538 669.201 566.842C533.257 366.306 439.967 305.943 42.3039 282.193" stroke="#1A1D25" stroke-opacity="0.3" stroke-width="1.0257" stroke-miterlimit="10"/>
<path opacity="0.5" d="M3103.22 1238.27C3103.22 1238.27 3113.07 445.702 2774.33 390.874C2458.34 339.578 2247.72 664.848 1953.14 631.597C1666.23 599.498 1828.34 277.71 1649.73 267.109C1488.43 257.393 1537.49 557.039 1444 735.467C1353.62 908.038 1236.96 1038.25 1057.28 981.663C889.184 928.703 788.636 720.885 670.842 556.669C530.89 361.94 448.075 333.503 40.273 309.273" stroke="#1A1D25" stroke-opacity="0.3" stroke-width="0.9966" stroke-miterlimit="10"/>
<path opacity="0.5" d="M3102.67 1248.15C3102.67 1248.15 3105.18 479.385 2771.03 419.772C2463.16 364.792 2254.7 672.084 1966.69 637.042C1687.25 603.203 1838.81 293.426 1664.06 282.953C1494.41 272.857 1559.75 582.515 1463.56 754.308C1371.48 918.498 1250.66 1034.52 1068.21 971.022C897.497 911.701 792.739 703.557 673.254 547.17C529.02 358.322 457.029 362.012 39.3618 337.225" stroke="#1A1D25" stroke-opacity="0.3" stroke-width="0.9676" stroke-miterlimit="10"/>
<path opacity="0.5" d="M3102.13 1258.02C3102.13 1258.02 3097.3 513.068 2767.38 448.471C2467.28 389.607 2261.53 678.772 1979.82 642.014C1708.13 606.36 1848.51 308.47 1677.97 298.324C1500.25 287.773 1581.51 607.242 1482.63 772.4C1388.85 928.211 1263.86 1030.04 1078.45 959.983C905.189 894.575 795.523 685.704 674.895 536.997C526.653 353.957 465.212 389.847 37.4057 364.58" stroke="#1A1D25" stroke-opacity="0.3" stroke-width="0.9386" stroke-miterlimit="10"/>
<path opacity="0.5" d="M3101.58 1267.9C3101.58 1267.9 3089.42 546.753 2764 477.097C2471.75 414.622 2268.16 685.81 1992.95 646.987C1728.81 609.867 1858.28 323.789 1691.95 313.97C1505.81 302.765 1603.69 632.445 1501.76 790.768C1406.64 938.399 1277.21 1026.11 1088.68 948.944C913.078 877.101 798.654 668.052 676.808 526.75C524.009 349.667 473.392 417.682 35.9955 391.785" stroke="#1A1D25" stroke-opacity="0.3" stroke-width="0.9095" stroke-miterlimit="10"/>
<path opacity="0.5" d="M3101.04 1277.77C3101.04 1277.77 3081.61 580.711 2760.43 506.071C2476.29 439.911 2275.14 693.047 2006.23 652.507C1749.83 613.573 1868.4 339.307 1706 329.889C1511.52 318.305 1626.14 657.572 1520.98 809.41C1424.7 948.511 1290.56 1022.18 1099.06 938.453C920.918 860.524 801.662 651.023 678.598 517.126C521.517 345.925 481.724 446.066 34.1133 419.413" stroke="#1A1D25" stroke-opacity="0.3" stroke-width="0.8805" stroke-miterlimit="10"/>
<path opacity="0.5" d="M3100.5 1287.65C3100.5 1287.65 3073.53 614.742 2757.05 534.694C2480.76 464.924 2282.04 700.008 2019.64 657.403C1770.78 617.003 1878.45 354.549 1720.18 345.184C1517.63 333.145 1648.52 682.424 1540.32 827.426C1442.89 957.999 1304.31 1017.55 1109.5 927.064C928.808 843.049 804.444 633.169 680.438 506.603C518.526 341.433 490.105 473.551 32.6293 446.343" stroke="#1A1D25" stroke-opacity="0.3" stroke-width="0.8515" stroke-miterlimit="10"/>
<path opacity="0.5" d="M3099.95 1297.52C3099.95 1297.52 3065.72 648.7 2753.4 563.394C2485.03 490.288 2288.67 707.045 2032.76 662.376C1791.46 620.509 1888.22 369.868 1734.36 360.481C1523.39 347.787 1671.37 706.853 1559.65 845.445C1461.15 967.763 1317.86 1013.27 1120.2 915.601C936.896 825.225 807.226 615.318 682.55 496.007C516.082 336.794 498.759 500.963 31.1442 473.274" stroke="#1A1D25" stroke-opacity="0.3" stroke-width="0.8225" stroke-miterlimit="10"/>
<path opacity="0.5" d="M3099.13 1307.47C3099.13 1307.47 3057.63 682.734 2749.82 592.368C2489.37 515.927 2295.3 714.082 2045.97 667.622C1812.41 623.941 1898.26 385.111 1748.34 376.127C1529.02 363.053 1694.1 731.906 1578.87 864.087C1479.57 978.075 1331.21 1009.34 1130.58 905.111C944.736 808.649 809.96 598.363 684.414 486.658C512.842 333.55 506.891 529.696 29.6851 501.376" stroke="#1A1D25" stroke-opacity="0.3" stroke-width="0.7934" stroke-miterlimit="10"/>
<path opacity="0.5" d="M3098.59 1317.34C3098.59 1317.34 3049.63 717.038 2746.17 621.066C2493.92 541.213 2302 721.392 2059.18 672.866C1833.17 627.719 1908.03 400.427 1762.33 391.77C1534.93 378.242 1716.76 756.682 1597.73 882.526C1497.63 988.185 1344.29 1005.48 1140.55 894.144C952.079 791.321 811.723 581.082 686.055 476.483C509.379 329.481 515.074 557.529 27.729 528.728" stroke="#1A1D25" stroke-opacity="0.3" stroke-width="0.7644" stroke-miterlimit="10"/>
<path opacity="0.5" d="M3098.05 1327.22C3098.05 1327.22 3041.89 751.272 2742.8 649.691C2498.26 566.852 2308.9 728.355 2072.58 677.765C1854.12 631.152 1918.08 415.672 1776.58 407.342C1540.77 393.159 1740.03 781.587 1617.15 900.82C1516.59 998.349 1357.84 1001.2 1151.13 883.306C960.393 774.322 814.182 564.202 688.044 466.511C505.989 325.689 523.604 585.565 26.3198 555.934" stroke="#1A1D25" stroke-opacity="0.3" stroke-width="0.7354" stroke-miterlimit="10"/>
<path opacity="0.5" d="M3097.5 1337.09C3097.5 1337.09 3033.89 785.578 2739.15 678.39C2502.61 592.49 2315.53 735.392 2085.44 682.811C1874.79 634.658 1927.85 430.99 1790.21 422.787C1546.05 408.224 1763.04 806.564 1635.94 918.987C1535.21 1008.31 1370.76 996.799 1161.29 871.992C967.934 756.647 816.218 546.848 689.61 456.064C502.251 321.697 531.437 613.2 24.2879 583.014" stroke="#1A1D25" stroke-opacity="0.3" stroke-width="0.7063" stroke-miterlimit="10"/>
<path opacity="0.5" d="M3096.96 1346.97C3096.96 1346.97 3025.95 820.16 2735.84 707.29C2507.3 618.328 2322.51 742.629 2098.99 688.257C1895.89 638.638 1937.97 446.508 1804.54 438.633C1552.04 423.69 1786.74 831.942 1655.42 937.554C1554.59 1018.95 1384.46 993.069 1171.94 861.427C976.047 739.996 818.477 530.318 691.672 446.366C498.736 318.528 540.042 641.51 23.0273 610.768" stroke="#1A1D25" stroke-opacity="0.3" stroke-width="0.6773" stroke-miterlimit="10"/>
<path opacity="0.5" d="M3096.41 1356.84C3096.41 1356.84 3018.02 854.74 2732.19 735.988C2511.45 644.313 2329.14 749.664 2112.12 693.228C1916.57 642.143 1947.74 461.825 1818.45 454.002C1557.8 438.33 1810.36 857.044 1674.49 955.645C1573.55 1029.11 1397.66 988.588 1182.1 850.112C983.738 722.869 820.389 513.585 693.662 436.391C494.949 315.432 548.573 669.543 21.4195 638.32" stroke="#1A1D25" stroke-opacity="0.3" stroke-width="0.6483" stroke-miterlimit="10"/>
<path opacity="0.5" d="M3095.87 1366.72C3095.87 1366.72 3010.16 889.597 2728.82 764.614C2515.79 669.952 2336.12 756.902 2125.52 698.126C1937.6 645.849 1957.79 477.069 1832.7 469.573C1563.71 453.522 1834.34 882.348 1693.98 974.213C1593.29 1039.95 1411.36 984.858 1192.76 839.547C991.704 705.669 822.302 496.855 695.652 426.419C491.237 312.612 557.104 697.578 20.0861 665.8" stroke="#1A1D25" stroke-opacity="0.3" stroke-width="0.6193" stroke-miterlimit="10"/>
<path opacity="0.5" d="M3095.33 1376.59C3095.33 1376.59 3002.03 924.527 2725.24 793.587C2520.09 696.488 2342.9 764.488 2138.81 703.646C1958.7 649.83 1967.91 492.587 1846.76 485.493C1569.42 469.061 1858.26 908.548 1713.19 992.854C1612.82 1051.13 1424.52 981.277 1203.07 828.782C998.998 689.242 824.091 480.747 697.369 416.52C486.978 309.941 565.089 725.762 18.131 693.154" stroke="#1A1D25" stroke-opacity="0.3" stroke-width="0.5902" stroke-miterlimit="10"/>
<path opacity="0.5" d="M3094.51 1386.54C3094.51 1386.54 2993.35 959.605 2721.59 822.286C2523.96 722.548 2349.25 771.598 2151.93 708.617C1979.45 653.609 1977.68 507.904 1860.67 500.863C1575.18 483.702 1882.39 934.398 1732.25 1010.95C1632.28 1062.04 1437.79 977.071 1213.58 817.667C1007.24 671.965 826.075 464.29 699.281 406.272C482.716 307.269 573.543 753.522 16.7198 720.357" stroke="#1A1D25" stroke-opacity="0.3" stroke-width="0.5612" stroke-miterlimit="10"/>
<path opacity="0.5" d="M3093.96 1396.41C3093.96 1396.41 2985.29 994.81 2717.94 850.985C2527.9 748.884 2355.96 778.91 2165.06 713.589C2000.13 657.115 1987.37 522.948 1874.57 516.234C1580.74 498.693 1906.39 960.874 1751.32 1029.04C1651.74 1072.96 1450.99 972.593 1223.74 806.353C1014.85 654.566 827.787 447.908 701.269 396.299C478.604 305.147 582.073 781.557 15.1111 747.912" stroke="#1A1D25" stroke-opacity="0.3" stroke-width="0.5322" stroke-miterlimit="10"/>
<path opacity="0.5" d="M3093.42 1406.29C3093.42 1406.29 2976.69 1030.16 2714.64 879.885C2532.2 775.42 2363.01 786.421 2178.27 718.836C2020.96 661.17 1997.49 538.466 1888.55 531.88C1586.38 513.959 1930.46 987.623 1770.46 1047.41C1671.08 1084.49 1464.34 968.663 1234.05 795.589C1022.54 637.44 829.301 431.876 702.91 386.127C474.294 303.374 589.981 809.467 13.4284 775.191" stroke="#1A1D25" stroke-opacity="0.3" stroke-width="0.5031" stroke-miterlimit="10"/>
<path opacity="0.5" d="M3092.87 1416.16C3092.87 1416.16 2968.16 1065.79 2710.99 908.584C2536.15 801.756 2369.44 793.807 2191.47 724.082C2041.51 665.299 2007.26 553.784 1902.53 547.525C1592.21 528.875 1954.76 1015.2 1789.67 1066.05C1690.83 1096.5 1477.69 964.732 1244.36 784.824C1030.23 620.315 830.888 416.117 704.624 376.228C470.058 301.875 598.237 837.576 11.5452 802.82" stroke="#1A1D25" stroke-opacity="0.3" stroke-width="0.4741" stroke-miterlimit="10"/>
<path opacity="0.5" d="M3092.33 1426.04C3092.33 1426.04 2959.63 1101.42 2707.61 937.208C2540.09 828.091 2376.22 801.392 2204.88 728.978C2062.54 669.004 2017.31 569.027 1916.79 563.095C1598.12 544.065 1979.06 1042.77 1809.08 1084.34C1710.24 1108.31 1491.24 960.452 1255.21 773.909C1038.54 603.313 833.373 400.408 706.886 366.18C466.246 300.849 607.041 865.536 10.4095 829.949" stroke="#1A1D25" stroke-opacity="0.3" stroke-width="0.4451" stroke-miterlimit="10"/>
<path opacity="0.5" d="M3091.79 1435.91C3091.79 1435.91 2950.55 1137.2 2704.04 966.183C2543.91 855.051 2383 808.978 2218.08 734.225C2083.36 673.06 2027.35 584.271 1930.77 578.741C1603.76 559.331 2003.31 1071.24 1828.22 1102.71C1729.73 1120.39 1504.59 956.523 1265.45 762.87C1046.16 585.914 835.31 384.85 708.527 356.008C461.886 299.974 614.949 893.446 8.4524 857.304" stroke="#1A1D25" stroke-opacity="0.3" stroke-width="0.4161" stroke-miterlimit="10"/>
<path opacity="0.5" d="M3091.24 1445.79C3091.24 1445.79 2941.54 1173.25 2700.66 994.807C2547.59 881.461 2389.5 816.638 2231.56 739.397C2104.19 677.114 2037.47 599.789 1945.03 594.311C1609.87 574.173 2027.28 1099.78 1847.63 1121C1748.94 1132.55 1518.14 952.243 1276.03 752.03C1054.2 568.988 837.597 369.491 710.517 346.035C458.225 299.498 623.48 921.481 7.11899 884.783" stroke="#1A1D25" stroke-opacity="0.3" stroke-width="0.387" stroke-miterlimit="10"/>
<path opacity="0.5" d="M3090.7 1455.66C3090.7 1455.66 2932.27 1209.37 2697.01 1023.51C2551.06 908.219 2396.01 824.297 2244.69 744.367C2124.67 680.968 2047.25 615.105 1959.21 609.606C1615.7 589.088 2050.99 1128.4 1866.97 1139.02C1768.15 1144.71 1531.62 947.688 1286.46 740.64C1062.02 551.237 839.733 353.582 712.63 335.437C454.488 298.746 632.135 948.891 5.63491 911.712" stroke="#1A1D25" stroke-opacity="0.3" stroke-width="0.358" stroke-miterlimit="10"/>
<path opacity="0.5" d="M3089.88 1465.61C3089.88 1465.61 2922.44 1245.65 2693.43 1052.48C2554.26 935.053 2402.31 832.306 2257.9 749.614C2145.3 685.372 2057.02 630.424 1973.19 625.252C1621.34 604.353 2074.01 1157.79 1886.11 1157.38C1786.62 1157.36 1544.97 943.758 1296.97 729.527C1069.98 534.037 842.292 338.148 714.619 325.464C450.851 299.442 640.193 977.349 3.82756 939.615" stroke="#1A1D25" stroke-opacity="0.3" stroke-width="0.329" stroke-miterlimit="10"/>
<path opacity="0.5" d="M3089.17 1474.89C3089.17 1474.89 2347.24 661.976 1987.01 640.488C1626.78 619 2096.5 1186.89 1905.07 1175.69C1713.65 1164.49 985.338 331.363 716.451 315.634C447.762 299.557 648.643 1005.27 2.49183 967.094" stroke="#1A1D25" stroke-opacity="0.3" stroke-width="0.3" stroke-miterlimit="10"/>
</g>
<defs>
<linearGradient id="paint0_linear_3610_13605" x1="1558" y1="144" x2="1558" y2="972" gradientUnits="userSpaceOnUse">
<stop offset="0.352666"/>
<stop offset="1" stop-opacity="0"/>
</linearGradient>
</defs>
<style xmlns="" class="darkreader darkreader--fallback">html, body, body :not(iframe) {
    background-color: var(--darkreader-background-ffffff, #181a1b) !important;
    border-color: var(--darkreader-border-404040, #776e62) !important;
    color: var(--darkreader-text-000000, #e8e6e3) !important;
}
div[style*="background-color: rgb(135, 135, 135)"] {
    background-color: #878787 !important;
}</style></svg>